<svg width="14" height="15" viewBox="0 0 14 15" fill="none" xmlns="http://www.w3.org/2000/svg">
<path id="Union" fill-rule="evenodd" clip-rule="evenodd" d="M1.20502 6.2365C1.35552 6.30183 1.51302 6.33333 1.66702 6.33333C2.11852 6.33333 2.54902 6.06966 2.73919 5.62983C3.47302 3.93117 5.14602 2.83333 6.99985 2.83333C7.99462 2.83333 8.9411 3.15205 9.72125 3.71212L9.09163 4.34174C8.75796 4.67541 8.65763 5.17707 8.83846 5.61341C9.01813 6.04857 9.44513 6.33324 9.91646 6.33324H12.8331C13.4783 6.33324 13.9998 5.81057 13.9998 5.16657V2.24991C13.9998 1.77857 13.7163 1.35274 13.28 1.17191C12.8436 0.991075 12.342 1.09024 12.0083 1.42507L11.3858 2.04757C10.1631 1.06586 8.62438 0.5 6.99985 0.5C4.21386 0.5 1.70086 2.15083 0.597191 4.70233C0.341691 5.29383 0.613524 5.981 1.20502 6.2365ZM2.60951 12.9568C3.82978 13.9357 5.36934 14.4999 6.99994 14.4999C9.77077 14.4999 12.2919 12.8538 13.4213 10.3058C13.6814 9.71661 13.4166 9.02828 12.8274 8.76694C12.2371 8.50561 11.5499 8.77394 11.2886 9.36078C10.5314 11.0653 8.84911 12.1666 6.99994 12.1666C6.0009 12.1666 5.05304 11.8494 4.27429 11.292L4.90816 10.6581C5.24183 10.3244 5.34216 9.82276 5.16133 9.38643C4.98166 8.9501 4.55466 8.6666 4.08333 8.6666H1.16667C0.5215 8.6666 0 9.1881 0 9.83326V12.7499C0 13.2213 0.2835 13.6483 0.719833 13.8279C0.8645 13.8886 1.01617 13.9166 1.16667 13.9166C1.47 13.9166 1.76867 13.7976 1.9915 13.5748L2.60951 12.9568Z" fill="white"/>
</svg>
