<svg width="23" height="23" viewBox="0 0 23 23" fill="none" xmlns="http://www.w3.org/2000/svg">
<g id="Layer_1" clip-path="url(#clip0_128_31)">
<path id="Vector" d="M22.4238 10.8676V18.7829C22.4238 20.794 20.7935 22.4243 18.7824 22.4243H4.21663C2.20552 22.4243 0.575195 20.794 0.575195 18.7829V4.21712C0.575195 2.20601 2.20552 0.575684 4.21663 0.575684H12.1319C12.6347 0.575684 13.0423 0.983265 13.0423 1.48604C13.0423 1.98882 12.6347 2.3964 12.1319 2.3964H4.21663C3.21108 2.3964 2.39591 3.21157 2.39591 4.21712V18.7829C2.39591 19.7884 3.21108 20.6036 4.21663 20.6036H18.7824C19.7879 20.6036 20.6031 19.7884 20.6031 18.7829V10.8676C20.6031 10.3648 21.0107 9.9572 21.5135 9.9572C22.0162 9.9572 22.4238 10.3648 22.4238 10.8676ZM19.6927 5.80115L20.9763 7.08475L21.7137 6.34736C22.6564 5.41295 22.6632 3.89125 21.7288 2.94855C21.7238 2.94351 21.7188 2.9385 21.7137 2.93351L20.066 1.28576C19.1136 0.366635 17.6045 0.366635 16.6521 1.28576L15.9148 2.02316L17.1984 3.30676L19.6927 5.80115ZM5.96158 13.5512L6.0162 16.0912C6.0162 16.5939 6.42378 17.0015 6.92656 17.0015L9.46646 17.0561H9.53929C10.5056 17.04 11.4259 16.6405 12.0974 15.9455L19.6927 8.37746L14.622 3.30676L7.05401 10.9021C6.34844 11.6023 5.95466 12.5572 5.96158 13.5512Z" fill="white"/>
</g>
<defs>
<clipPath id="clip0_128_31">
<rect width="23" height="23" fill="white"/>
</clipPath>
</defs>
</svg>
