<svg width="29" height="29" viewBox="0 0 29 29" fill="none" xmlns="http://www.w3.org/2000/svg">
<g id="Layer_1" clip-path="url(#clip0_159_52)">
<path id="Union" fill-rule="evenodd" clip-rule="evenodd" d="M23.7591 0.209661H12.6186C10.0311 0.209661 7.92605 2.31474 7.92605 4.90216V5.92196H10.1698C10.0385 5.60781 9.96569 5.26334 9.96569 4.90216C9.96569 3.43937 11.1558 2.2493 12.6186 2.2493C14.0814 2.2493 15.2715 3.43937 15.2715 4.90216C15.2715 5.2634 15.1986 5.60781 15.0673 5.92196H17.0236C20.1752 5.92196 22.7393 8.48603 22.7393 11.6377V13.5939C23.0534 13.4626 23.3979 13.3898 23.7591 13.3898C25.2219 13.3898 26.412 14.5799 26.412 16.0427C26.412 17.5055 25.2219 18.6956 23.7591 18.6956C23.3979 18.6956 23.0534 18.6227 22.7393 18.4914V20.7352H23.7591C26.3465 20.7352 28.4516 18.6301 28.4516 16.0427V4.90216C28.4516 2.31474 26.3465 0.209661 23.7591 0.209661ZM23.7591 7.55508C22.2963 7.55508 21.1062 6.36501 21.1062 4.90222C21.1062 3.43943 22.2963 2.24936 23.7591 2.24936C25.2219 2.24936 26.412 3.43943 26.412 4.90222C26.412 6.36501 25.2219 7.55508 23.7591 7.55508ZM17.0235 7.55532H4.66329C2.41211 7.55532 0.580633 9.38681 0.580633 11.638V23.9982C0.580633 26.2494 2.41211 28.0809 4.66329 28.0809H17.0235C19.2747 28.0809 21.1062 26.2494 21.1062 23.9982V11.638C21.1062 9.38675 19.2748 7.55532 17.0235 7.55532ZM5.27314 26.0412C3.81034 26.0412 2.62028 24.8512 2.62028 23.3884C2.62028 21.9256 3.81034 20.7355 5.27314 20.7355C6.73593 20.7355 7.92599 21.9256 7.92599 23.3884C7.92599 24.8512 6.73593 26.0412 5.27314 26.0412ZM5.27314 14.9007C3.81034 14.9007 2.62028 13.7107 2.62028 12.2479C2.62028 10.785 3.81034 9.59497 5.27314 9.59497C6.73593 9.59497 7.92599 10.785 7.92599 12.2479C7.92605 13.7107 6.73593 14.9007 5.27314 14.9007ZM16.4136 26.0412C14.9508 26.0412 13.7608 24.8512 13.7608 23.3884C13.7608 21.9256 14.9508 20.7355 16.4136 20.7355C17.8765 20.7355 19.0665 21.9256 19.0665 23.3884C19.0665 24.8512 17.8765 26.0412 16.4136 26.0412ZM16.4136 14.9007C14.9508 14.9007 13.7608 13.7107 13.7608 12.2479C13.7608 10.785 14.9508 9.59497 16.4136 9.59497C17.8765 9.59497 19.0665 10.785 19.0665 12.2479C19.0666 13.7107 17.8765 14.9007 16.4136 14.9007ZM4.25334 12.2476C4.25334 11.6853 4.71082 11.2278 5.27313 11.2278C5.83545 11.2278 6.29298 11.6853 6.29293 12.2476C6.29293 12.8099 5.83545 13.2674 5.27313 13.2674C4.71082 13.2674 4.25334 12.8099 4.25334 12.2476ZM16.413 22.3679C15.8507 22.3679 15.3932 22.8254 15.3932 23.3877C15.3932 23.95 15.8507 24.4075 16.413 24.4075C16.9754 24.4075 17.4329 23.95 17.4329 23.3877C17.4329 22.8254 16.9754 22.3679 16.413 22.3679ZM5.27313 24.408C5.83635 24.408 6.29293 23.9514 6.29293 23.3882C6.29293 22.825 5.83635 22.3684 5.27313 22.3684C4.70992 22.3684 4.25334 22.825 4.25334 23.3882C4.25334 23.9514 4.70992 24.408 5.27313 24.408ZM15.3932 12.2476C15.3932 11.6853 15.8507 11.2278 16.413 11.2278C16.9754 11.2278 17.4329 11.6853 17.4329 12.2476C17.4329 12.8099 16.9754 13.2674 16.413 13.2674C15.8507 13.2674 15.3932 12.8099 15.3932 12.2476ZM12.6186 3.88237C13.1809 3.88237 13.6384 4.33984 13.6384 4.90216C13.6384 5.46448 13.1809 5.92201 12.6186 5.92196C12.0562 5.92196 11.5988 5.46448 11.5988 4.90216C11.5988 4.33984 12.0562 3.88237 12.6186 3.88237ZM24.7787 16.0426C24.7787 15.4802 24.3213 15.0228 23.7589 15.0228C23.1966 15.0228 22.7391 15.4802 22.7391 16.0426C22.7391 16.6049 23.1966 17.0624 23.7589 17.0624C24.3213 17.0624 24.7787 16.6049 24.7787 16.0426ZM24.7787 4.90216C24.7787 5.46538 24.3222 5.92196 23.7589 5.92196C23.1957 5.92196 22.7391 5.46538 22.7391 4.90216C22.7391 4.33895 23.1957 3.88237 23.7589 3.88237C24.3222 3.88237 24.7787 4.33895 24.7787 4.90216Z" fill="white"/>
</g>
<defs>
<clipPath id="clip0_159_52">
<rect width="27.871" height="27.871" fill="white" transform="translate(0.580566 0.209717)"/>
</clipPath>
</defs>
</svg>
