<svg width="26" height="29" viewBox="0 0 26 29" fill="none" xmlns="http://www.w3.org/2000/svg">
<g id="Group">
<path id="Vector" d="M18.6967 3.70654V2.31299C18.6967 1.47685 18.1393 0.919434 17.3032 0.919434H8.94188C8.10575 0.919434 7.54833 1.47685 7.54833 2.31299V3.70654H0.580566V6.49364H25.6645V3.70654H18.6967Z" fill="white"/>
<path id="Vector_2" d="M3.22832 27.5363C3.22832 28.2331 3.92509 28.7905 4.62187 28.7905H21.4839C22.1806 28.7905 22.8774 28.2331 22.8774 27.5363L24.271 9.28076H1.97412L3.22832 27.5363ZM17.3032 13.4614C17.3032 12.6253 17.8606 12.0679 18.6967 12.0679C19.5329 12.0679 20.0903 12.6253 20.0903 13.4614V24.6098C20.0903 25.446 19.5329 26.0034 18.6967 26.0034C17.8606 26.0034 17.3032 25.446 17.3032 24.6098V13.4614ZM11.729 13.4614C11.729 12.6253 12.2864 12.0679 13.1225 12.0679C13.9587 12.0679 14.5161 12.6253 14.5161 13.4614V24.6098C14.5161 25.446 13.9587 26.0034 13.1225 26.0034C12.2864 26.0034 11.729 25.446 11.729 24.6098V13.4614ZM6.15478 13.4614C6.15478 12.6253 6.7122 12.0679 7.54833 12.0679C8.38446 12.0679 8.94188 12.6253 8.94188 13.4614V24.6098C8.94188 25.446 8.38446 26.0034 7.54833 26.0034C6.7122 26.0034 6.15478 25.446 6.15478 24.6098V13.4614Z" fill="white"/>
</g>
</svg>
