<svg width="29" height="29" viewBox="0 0 29 29" fill="none" xmlns="http://www.w3.org/2000/svg">
<g id="Layer_1" clip-path="url(#clip0_159_47)">
<path id="Vector" d="M18.0807 22.6362L28.3534 26.1758L27.5974 28.3718L14.5166 23.8648L1.43587 28.3718L0.679872 26.1758L10.9526 22.6362L0.678711 19.0966L1.43471 16.9006L14.5155 21.4075L27.5963 16.9006L28.3523 19.0966L18.0795 22.6362H18.0807ZM9.87149 14.5002H6.38762V8.69373C6.38762 4.21115 10.0341 0.564697 14.5166 0.564697C18.9992 0.564697 22.6457 4.21115 22.6457 8.69373V14.5002H19.1618V17.9841H9.87149V14.5002ZM15.6779 9.27437C15.6779 10.2359 16.4583 11.0163 17.4199 11.0163C18.3814 11.0163 19.1618 10.2359 19.1618 9.27437C19.1618 8.31283 18.3814 7.53244 17.4199 7.53244C16.4583 7.53244 15.6779 8.31283 15.6779 9.27437ZM9.87149 9.27437C9.87149 10.2359 10.6519 11.0163 11.6134 11.0163C12.575 11.0163 13.3554 10.2359 13.3554 9.27437C13.3554 8.31283 12.575 7.53244 11.6134 7.53244C10.6519 7.53244 9.87149 8.31283 9.87149 9.27437Z" fill="white"/>
</g>
<defs>
<clipPath id="clip0_159_47">
<rect width="27.871" height="27.871" fill="white" transform="translate(0.580566 0.564697)"/>
</clipPath>
</defs>
</svg>
