<svg width="24" height="24" viewBox="0 0 24 24" fill="none" xmlns="http://www.w3.org/2000/svg">
<g clip-path="url(#clip0_663_10132)">
<path d="M20.6279 16.1559C21.5154 16.1559 22.2837 15.5233 22.4553 14.6517L23.9646 6.97686C24.0727 6.42736 23.9308 5.86431 23.5752 5.432C23.2199 5.00024 22.6961 4.75268 22.1374 4.75268H5.75408L5.32287 2.56824C5.17986 1.84058 4.53826 1.3125 3.79742 1.3125H0.703124C0.314758 1.3125 0 1.62726 0 2.01562C0 2.40399 0.314758 2.71875 0.703124 2.71875H3.79742C3.8681 2.71875 3.92926 2.76947 3.94317 2.83996L7.00689 18.3622C7.17297 19.2041 7.91582 19.8151 8.77312 19.8151H8.97014C8.89104 20.037 8.84801 20.276 8.84801 20.5246C8.84801 21.6914 9.79613 22.6406 10.9616 22.6406C12.1271 22.6406 13.0752 21.6914 13.0752 20.5246C13.0752 20.276 13.032 20.037 12.9529 19.8151H17.2632C17.1841 20.037 17.1409 20.276 17.1409 20.5246C17.1409 21.6914 18.089 22.6406 19.2544 22.6406C20.4199 22.6406 21.3682 21.6914 21.3682 20.5246C21.3682 20.276 21.325 20.037 21.2459 19.8151H21.8413C22.2297 19.8151 22.5445 19.5002 22.5445 19.112C22.5445 18.7236 22.2297 18.4089 21.8413 18.4089H8.77312C8.58562 18.4089 8.42303 18.2746 8.3864 18.0899L8.00426 16.1537C8.03393 16.155 8.06359 16.1559 8.09344 16.1559H20.6279ZM19.2544 19.8151C19.6444 19.8151 19.962 20.1333 19.962 20.5246C19.962 20.9161 19.6444 21.2344 19.2544 21.2344C18.8644 21.2344 18.5471 20.9161 18.5471 20.5246C18.5471 20.1333 18.8644 19.8151 19.2544 19.8151ZM10.9616 19.8151C11.3516 19.8151 11.6689 20.1333 11.6689 20.5246C11.6689 20.9161 11.3516 21.2344 10.9616 21.2344C10.5714 21.2344 10.2541 20.9161 10.2541 20.5246C10.2541 20.1333 10.5714 19.8151 10.9616 19.8151ZM22.1374 6.15893C22.3244 6.15893 22.4379 6.26312 22.489 6.32519C22.5404 6.38781 22.6212 6.5202 22.5848 6.7055L21.0754 14.3804C21.0333 14.5942 20.8451 14.7497 20.6279 14.7497H17.3313L18.9624 6.15893H22.1374ZM17.531 6.15893L15.8999 14.7497H12.5711L10.9402 6.15893H17.531ZM7.67065 14.4635L6.03167 6.15893H9.50866L11.1398 14.7497H8.09344C7.90557 14.7497 7.73931 14.6334 7.67065 14.4635Z" fill="#060517"/>
</g>
<defs>
<clipPath id="clip0_663_10132">
<rect width="24" height="24" fill="white"/>
</clipPath>
</defs>
</svg>
