<svg width="24" height="22" viewBox="0 0 24 22" fill="none" xmlns="http://www.w3.org/2000/svg">
<path d="M23.7488 5.59963C22.9361 2.41221 20.2424 0.186035 17.1983 0.186035C15.1919 0.186035 13.377 1.15237 11.998 2.93159C10.62 1.15227 8.80604 0.186035 6.80007 0.186035C3.7572 0.186035 1.06423 2.41211 0.251444 5.59944C-0.183587 7.30545 -0.26813 10.0315 1.80029 13.3299C3.71205 16.3786 7.02487 19.2029 11.6468 21.7242C11.7562 21.7839 11.877 21.8137 11.9979 21.8137C12.1186 21.8137 12.2395 21.7839 12.3488 21.7243C16.9721 19.203 20.286 16.3786 22.1986 13.33C24.2678 10.0316 24.1837 7.30555 23.7488 5.59963ZM11.9978 20.2437C0.657447 13.9258 1.22227 7.72533 1.67206 5.96175C2.31909 3.42428 4.42788 1.6521 6.80007 1.6521C8.59395 1.6521 10.2173 2.70132 11.3708 4.60652C11.5036 4.82584 11.7413 4.95984 11.9978 4.95984C12.2541 4.95984 12.4918 4.82594 12.6248 4.60672C13.7794 2.70142 15.4036 1.6522 17.1983 1.6522C19.5718 1.6522 21.6812 3.42438 22.3282 5.96185C22.7778 7.72533 23.3439 13.9249 11.9978 20.2437Z" fill="#060517"/>
</svg>
