<svg width="19" height="18" viewBox="0 0 19 18" fill="none" xmlns="http://www.w3.org/2000/svg">
<g clip-path="url(#clip0_1476_14536)">
<path d="M14.8015 4.52819L13.139 2.86573C12.4471 2.17371 11.3316 2.17948 10.6453 2.86573L10.6453 2.86576C9.95793 3.5531 9.95431 4.6685 10.6453 5.35938L12.3078 7.02185C12.9953 7.70939 14.114 7.70932 14.8015 7.02185C15.4891 6.33437 15.4891 5.21567 14.8015 4.52819ZM13.9703 6.19065C13.9584 6.20246 13.946 6.21326 13.9336 6.22384C13.7027 6.41888 13.3566 6.40827 13.139 6.19065L11.4765 4.52819C11.247 4.29862 11.2479 3.92558 11.4765 3.69696L11.4766 3.69692C11.7033 3.47013 12.0764 3.46574 12.3078 3.69692L13.9703 5.35942C14.1994 5.58857 14.1995 5.96143 13.9703 6.19065Z" fill="#060517"/>
<path d="M16.4639 2.86561L14.8014 1.20312C13.1973 -0.401021 10.587 -0.401056 8.98282 1.20312C7.51969 2.66624 7.39106 4.96623 8.59677 6.57652L1.50174 13.6717C1.27221 13.9012 1.27221 14.2734 1.50174 14.5029L3.1642 16.1654C3.3937 16.3949 3.7659 16.3949 3.99543 16.1654L4.41105 15.7498L6.48913 17.8278C6.71863 18.0574 7.09082 18.0574 7.32036 17.8278L8.98265 16.1656C8.98272 16.1655 8.98275 16.1655 8.98286 16.1653C8.98293 16.1653 8.98296 16.1652 8.98307 16.1651L10.6453 14.5029C10.8749 14.2733 10.8749 13.9012 10.6453 13.6717L8.56724 11.5936L11.0902 9.0706C12.6893 10.2716 14.9878 10.1604 16.4639 8.68423C18.0719 7.0763 18.072 4.47372 16.4639 2.86561ZM9.39844 14.0873L8.56721 14.9186L8.15155 14.503C7.92206 14.2735 7.54986 14.2735 7.32032 14.503C7.09082 14.7325 7.09082 15.1047 7.32032 15.3342L7.7359 15.7498L6.90467 16.581L5.24221 14.9186C5.5519 14.6089 7.4884 12.6724 7.7359 12.4248L9.39844 14.0873ZM15.6327 7.85307C14.4841 9.00162 12.6252 9.00173 11.4765 7.85307C11.2472 7.62364 10.8748 7.62357 10.6453 7.85307C10.6453 7.85307 3.75954 14.7388 3.57982 14.9185L2.74859 14.0873L9.81405 7.0218C10.0436 6.79227 10.0436 6.42011 9.81405 6.19057C8.66821 5.04469 8.66821 3.18026 9.81405 2.03442C10.9599 0.888575 12.8243 0.888575 13.9702 2.03442L15.6327 3.69692C16.7812 4.8454 16.7814 6.70441 15.6327 7.85307Z" fill="#060517"/>
</g>
<defs>
<clipPath id="clip0_1476_14536">
<rect width="18" height="18" fill="white" transform="translate(0.5)"/>
</clipPath>
</defs>
</svg>
